<?xml version="1.0" encoding="UTF-8"?>
<svg width="50px" height="50px" viewBox="0 0 50 50" version="1.1" xmlns="http://www.w3.org/2000/svg" xmlns:xlink="http://www.w3.org/1999/xlink">
    <!-- Generator: Sketch 47 (45396) - http://www.bohemiancoding.com/sketch -->
    <title>Shape</title>
    <desc>Created with Sketch.</desc>
    <defs></defs>
    <g id="Page-1" stroke="none" stroke-width="1" fill="none" fill-rule="evenodd">
        <g id="Forums" transform="translate(-1218.000000, -44.000000)" fill="#A7A9B7">
            <path d="M1253.77778,63.7222222 C1254.05556,57.7222222 1249.22222,52.8888889 1243,52.8888889 C1236.77778,52.8888889 1231.94444,57.7222222 1232.22222,63.7222222 C1232.44444,69.7222222 1237.27778,74.5555556 1243,74.5555556 C1248.72222,74.5555556 1253.55556,69.7222222 1253.77778,63.7222222 L1253.77778,63.7222222 Z M1259.22222,85 L1259.22222,84.0555556 C1259.22222,79.7777778 1255.77778,76.3333333 1251.5,76.3333333 L1234.55556,76.3333333 C1230.27778,76.3333333 1226.83333,79.7777778 1226.83333,84.0555556 L1226.83333,85 C1230.94444,89.1666667 1236.66667,91.7777778 1243,91.7777778 C1249.33333,91.7777778 1255.05556,89.1666667 1259.22222,85 L1259.22222,85 Z M1243,91.7777778 C1230.44444,91.7777778 1220.22222,81.5555556 1220.22222,69 C1220.22222,56.4444444 1230.44444,46.2222222 1243,46.2222222 C1255.55556,46.2222222 1265.77778,56.4444444 1265.77778,69 C1265.77778,81.5555556 1255.55556,91.7777778 1243,91.7777778 L1243,91.7777778 Z M1243,94 C1256.83333,94 1268,82.8333333 1268,69 C1268,55.1666667 1256.83333,44 1243,44 C1229.16667,44 1218,55.1666667 1218,69 C1218,82.8333333 1229.16667,94 1243,94 L1243,94 Z" id="Shape"></path>
        </g>
    </g>
</svg>